<svg width="17" height="17" viewBox="0 0 17 17" fill="none" xmlns="http://www.w3.org/2000/svg">
<g clip-path="url(#clip0_8487_76397)">
<path d="M7.48619 1.15426C7.48619 0.797226 7.19615 0.50469 6.84065 0.537702C6.14511 0.602288 5.46197 0.771008 4.81436 1.03925C3.9673 1.39012 3.19762 1.9044 2.5493 2.55272C1.90098 3.20104 1.3867 3.97071 1.03583 4.81778C0.767591 5.46539 0.59887 6.14853 0.534284 6.84407C0.501272 7.19957 0.793809 7.48961 1.15084 7.48961H6.83973C7.19677 7.48961 7.48619 7.20018 7.48619 6.84315V1.15426Z" fill="#D64550" style="fill:#D64550;fill:color(display-p3 0.8392 0.2706 0.3137);fill-opacity:1;"/>
<path d="M12.007 7.48182C13.935 7.48182 15.4979 5.91889 15.4979 3.99091C15.4979 2.06293 13.935 0.5 12.007 0.5C10.079 0.5 8.51611 2.06293 8.51611 3.99091C8.51611 5.91889 10.079 7.48182 12.007 7.48182Z" fill="#2A61A0" style="fill:#2A61A0;fill:color(display-p3 0.1653 0.3810 0.6285);fill-opacity:1;"/>
<path d="M6.57677 8.51562H1.40505C0.905205 8.51562 0.5 8.92083 0.5 9.42068V14.5924C0.5 15.0922 0.905205 15.4974 1.40505 15.4974H6.57677C7.07661 15.4974 7.48182 15.0922 7.48182 14.5924V9.42068C7.48182 8.92083 7.07661 8.51562 6.57677 8.51562Z" fill="#EF8D42" style="fill:#EF8D42;fill:color(display-p3 0.9373 0.5529 0.2588);fill-opacity:1;"/>
<path fill-rule="evenodd" clip-rule="evenodd" d="M14.9475 12.5565C14.7785 12.4279 14.6994 12.2189 14.6994 12.0065C14.6994 11.7942 14.7785 11.5852 14.9475 11.4566L15.4316 11.0884C15.4998 11.0361 15.5177 10.9418 15.4746 10.865L14.7569 9.65715C14.7246 9.6013 14.6636 9.56988 14.599 9.56988C14.5774 9.56988 14.5559 9.57337 14.538 9.58035L13.9638 9.80463C13.7652 9.88224 13.5439 9.84733 13.3585 9.74179C13.1674 9.63295 13.0181 9.4534 12.986 9.23579L12.9014 8.66224C12.8907 8.57846 12.8153 8.51562 12.7256 8.51562H11.2901C11.2003 8.51562 11.125 8.57846 11.1142 8.66224L11.03 9.2334C10.9977 9.45248 10.8469 9.63401 10.6549 9.74437C10.4711 9.85004 10.2518 9.88274 10.0542 9.80557L9.47769 9.58035C9.45615 9.57337 9.43462 9.56988 9.41309 9.56988C9.35207 9.56988 9.29107 9.6013 9.25877 9.65715L8.54099 10.865C8.49434 10.9418 8.51587 11.0361 8.58406 11.0884L9.0681 11.4566C9.23714 11.5852 9.31619 11.7942 9.31619 12.0065C9.31619 12.2189 9.23714 12.4279 9.0681 12.5565L8.58406 12.9246C8.51587 12.977 8.49794 13.0713 8.54099 13.1481L9.25877 14.3559C9.29107 14.4118 9.35207 14.4432 9.41667 14.4432C9.43821 14.4432 9.45974 14.4397 9.47769 14.4327L10.0518 14.2084C10.2505 14.1308 10.4717 14.1657 10.6571 14.2713C10.8482 14.3801 10.9976 14.5597 11.0296 14.7773L11.1142 15.3508C11.125 15.4346 11.2003 15.4974 11.2901 15.4974H12.7256C12.8153 15.4974 12.8907 15.4346 12.9014 15.3508L12.9856 14.7797C13.0179 14.5606 13.1687 14.3791 13.3607 14.2687C13.5446 14.163 13.7639 14.1303 13.9614 14.2075L14.538 14.4327C14.5595 14.4397 14.581 14.4432 14.6025 14.4432C14.6636 14.4432 14.7246 14.4118 14.7569 14.3559L15.4746 13.1481C15.5177 13.0713 15.4998 12.977 15.4316 12.9246L14.9475 12.5565ZM12.007 12.9116C12.5069 12.9116 12.9121 12.5064 12.9121 12.0065C12.9121 11.5067 12.5069 11.1015 12.007 11.1015C11.5072 11.1015 11.102 11.5067 11.102 12.0065C11.102 12.5064 11.5072 12.9116 12.007 12.9116Z" fill="#1F1F1F" style="fill:#1F1F1F;fill:color(display-p3 0.1227 0.1227 0.1227);fill-opacity:1;"/>
<path d="M12.007 7.48182C13.935 7.48182 15.4979 5.91889 15.4979 3.99091C15.4979 2.06293 13.935 0.5 12.007 0.5C10.079 0.5 8.51611 2.06293 8.51611 3.99091C8.51611 5.91889 10.079 7.48182 12.007 7.48182Z" fill="#2A61A0" style="fill:#2A61A0;fill:color(display-p3 0.1653 0.3810 0.6285);fill-opacity:1;"/>
</g>
<defs>
<clipPath id="clip0_8487_76397">
<rect width="16" height="16" fill="white" style="fill:white;fill-opacity:1;" transform="translate(0.5 0.5)"/>
</clipPath>
</defs>
</svg>
