<svg width="11" height="11" viewBox="0 0 11 11" fill="none" xmlns="http://www.w3.org/2000/svg">
<path d="M4.80339 0.450157C4.80339 0.204697 4.60399 0.00357847 4.35958 0.0262741C3.8814 0.0706773 3.41174 0.186672 2.96651 0.371091C2.38415 0.612313 1.855 0.965879 1.40928 1.4116C0.963559 1.85732 0.609994 2.38647 0.368771 2.96883C0.184353 3.41406 0.0683579 3.88372 0.0239547 4.3619C0.00125912 4.60631 0.202378 4.80571 0.447838 4.80571L4.35895 4.80571C4.60441 4.80571 4.80339 4.60673 4.80339 4.36127V0.450157Z" fill="#D64550" style="fill:#D64550;fill:color(display-p3 0.8392 0.2706 0.3137);fill-opacity:1;"/>
<circle cx="7.91111" cy="2.4" r="2.4" fill="#2A61A0" style="fill:#2A61A0;fill:color(display-p3 0.1653 0.3810 0.6285);fill-opacity:1;"/>
<rect y="5.51123" width="4.8" height="4.8" rx="0.622222" fill="#EF8D42" style="fill:#EF8D42;fill:color(display-p3 0.9373 0.5529 0.2588);fill-opacity:1;"/>
<path fill-rule="evenodd" clip-rule="evenodd" d="M9.93271 8.28931C9.8165 8.20091 9.76215 8.05724 9.76215 7.91123C9.76215 7.76522 9.8165 7.62155 9.93271 7.53315L10.2655 7.28003C10.3124 7.24403 10.3247 7.17923 10.2951 7.12643L9.80163 6.29603C9.77942 6.25763 9.73747 6.23603 9.69306 6.23603C9.67826 6.23603 9.66346 6.23843 9.65112 6.24323L9.25641 6.39742C9.11982 6.45078 8.9677 6.42678 8.84027 6.35422C8.70885 6.27939 8.6062 6.15595 8.58415 6.00634L8.52602 5.61203C8.51862 5.55443 8.4668 5.51123 8.40512 5.51123H7.41819C7.3565 5.51123 7.30469 5.55443 7.29729 5.61203L7.2394 6.0047C7.2172 6.15532 7.11355 6.28012 6.98155 6.35599C6.85515 6.42864 6.70436 6.45112 6.56855 6.39807L6.17219 6.24323C6.15738 6.23843 6.14258 6.23603 6.12778 6.23603C6.08583 6.23603 6.04389 6.25763 6.02168 6.29603L5.52821 7.12643C5.49614 7.17923 5.51094 7.24403 5.55782 7.28003L5.8906 7.53316C6.00681 7.62155 6.06116 7.76522 6.06116 7.91123C6.06116 8.05724 6.00681 8.20091 5.8906 8.2893L5.55782 8.54243C5.51094 8.57843 5.49861 8.64323 5.52821 8.69603L6.02168 9.52643C6.04389 9.56483 6.08583 9.58643 6.13024 9.58643C6.14505 9.58643 6.15985 9.58403 6.17219 9.57923L6.56689 9.42504C6.70349 9.37168 6.8556 9.39568 6.98304 9.46824C7.11445 9.54307 7.21711 9.66652 7.23916 9.81613L7.29729 10.2104C7.30469 10.268 7.3565 10.3112 7.41819 10.3112H8.40512C8.4668 10.3112 8.51862 10.268 8.52602 10.2104L8.5839 9.81776C8.60611 9.66714 8.70976 9.54235 8.84175 9.46647C8.96816 9.39382 9.11895 9.37134 9.25476 9.42439L9.65112 9.57923C9.66592 9.58403 9.68073 9.58643 9.69553 9.58643C9.73748 9.58643 9.77942 9.56483 9.80163 9.52643L10.2951 8.69603C10.3247 8.64323 10.3124 8.57843 10.2655 8.54243L9.93271 8.28931ZM7.91111 8.53345C8.25475 8.53345 8.53333 8.25487 8.53333 7.91123C8.53333 7.56759 8.25475 7.28901 7.91111 7.28901C7.56746 7.28901 7.28889 7.56759 7.28889 7.91123C7.28889 8.25487 7.56746 8.53345 7.91111 8.53345Z" fill="#1F1F1F" style="fill:#1F1F1F;fill:color(display-p3 0.1227 0.1227 0.1227);fill-opacity:1;"/>
<circle cx="7.91111" cy="2.4" r="2.4" fill="#2A61A0" style="fill:#2A61A0;fill:color(display-p3 0.1653 0.3810 0.6285);fill-opacity:1;"/>
</svg>
